<svg xmlns="http://www.w3.org/2000/svg" viewBox="0 0 181 181"><g fill="#78FA93" fill-rule="evenodd"><path d="M181.29 95.187c.041-1.14.086-2.28.086-3.43v-4.305l-3.9 3.91 3.813 3.825z"/><path d="M175.939 122.783a90.485 90.485 0 004.624-19.026l-12.356-12.394 13.169-13.21V54.488l-36.76 36.875 31.323 31.42zM90.688 178.42l-4.188 4.2c1.39.063 2.784.106 4.188.106 1.405 0 2.799-.043 4.187-.106l-4.187-4.2z"/><path d="M164.599 144.37a91.06 91.06 0 008.632-15.005l-37.886-38.002 46.03-46.173V21.525l-69.621 69.838 52.845 53.008zM90.688 145.457l-31.503 31.6a89.698 89.698 0 0018.842 4.764l12.66-12.7 12.661 12.7a89.703 89.703 0 0018.843-4.764l-31.503-31.6z"/><path d="M90.688 112.494l-52.911 53.074a90.67 90.67 0 0014.877 8.741l38.034-38.151 38.034 38.151a90.651 90.651 0 0014.878-8.74l-52.912-53.075z"/><path d="M78.892 91.363l-58.106 58.285a91.616 91.616 0 0011.768 11.86l58.134-58.313 58.134 58.314a91.599 91.599 0 0011.768-11.86l-58.107-58.286 78.893-79.136V.656L180.722 0h-10.748L90.688 79.53 11.402 0H.653L0 .655v11.572l78.892 79.136z"/><path d="M13.17 91.363L.815 103.758a90.488 90.488 0 004.624 19.026l31.324-31.421L0 54.487v23.664l13.17 13.212z"/><path d="M46.03 91.363L8.146 129.365a91.032 91.032 0 008.631 15.005l52.845-53.007L0 21.526V45.19l46.03 46.173zM.087 95.188L3.9 91.363 0 87.45v4.308c0 1.15.044 2.29.087 3.43M90.688 4.307L94.98.001h-8.586z"/><path d="M90.688 70.233L160.704 0h-23.591L90.688 46.568 44.263 0H20.67z"/><path d="M53.533 0l37.155 37.27L127.843 0H104.25L90.688 13.607 77.125 0H53.966V0z"/></g></svg>